# xmcd
#
# Track frame offsets:
# 150
# 21038
# 38265
# 54585
# 65478
# 82840
# 99103
# 136915
# 155448
# 167735
# 190985
# 216273
# 235113
# 246545
# 270725
# 283640
#
# Disc length: 4034 seconds
#
#
# Revision: 2
# Processed by: cddbd v1.5.1PL0 Copyright (c) Steve Scherf et al.
# Submitted via: FreeRIP 2.80 
#
DISCID=d30fc010
DTITLE=Carrie Smith - Confessin' The Blues
DYEAR=1900
DGENRE=Blues
TTITLE0=Confessin' The Blues
TTITLE1=Country Man
TTITLE2=Mama (He Treats Your Daughter Mean)
TTITLE3=Nobody Knows You When You're Down And Out
TTITLE4=On Revival Day
TTITLE5=Won't Be Long
TTITLE6=I Want A Little Boy
TTITLE7=Trouble In Mind
TTITLE8=Saint Louis Blues
TTITLE9=In The Dark
TTITLE10=Ill Wind
TTITLE11=When I've Been Drinkin'
TTITLE12=Deed I Do
TTITLE13=Careless Love
TTITLE14=Do Your Duty
TTITLE15=Everybody Loves My Baby
EXTD=
EXTT0=
EXTT1=
EXTT2=
EXTT3=
EXTT4=
EXTT5=
EXTT6=
EXTT7=
EXTT8=
EXTT9=
EXTT10=
EXTT11=
EXTT12=
EXTT13=
EXTT14=
EXTT15=
PLAYORDER=
